/* XPM */
static char* Normal[] = {
  "64 64 3 1 16 6",
  "  c None",
  "! c #101010",
  "# c #000000",
  "                                                                ",
  "                                                                ",
  "                                                                ",
  "                                                                ",
  "                                                                ",
  "                                                                ",
  "                !!                                              ",
  "                !#!                                             ",
  "                !##!                                            ",
  "                !###!                                           ",
  "                !####!                                          ",
  "                !#####!                                         ",
  "                !######!                                        ",
  "                !#######!                                       ",
  "                !########!                                      ",
  "                !#########!                                     ",
  "                !##########!                                    ",
  "                !###########!                                   ",
  "                !############!                                  ",
  "                !#############!                                 ",
  "                !##############!                                ",
  "                !###############!                               ",
  "                !################!                              ",
  "                !#################!                             ",
  "                !##################!                            ",
  "                !###################!                           ",
  "                !####################!                          ",
  "                !#####################!                         ",
  "                !######################!                        ",
  "                !#######################!                       ",
  "                !########################!                      ",
  "                !#########################!                     ",
  "                !##########################!                    ",
  "                !###########################!                   ",
  "                !############################!                  ",
  "                !################!!!!!!!!!!!!!                  ",
  "                !################!                              ",
  "                !################!!                             ",
  "                !#################!                             ",
  "                !########!!#######!!                            ",
  "                !#######!  !#######!                            ",
  "                !######!   !#######!!                           ",
  "                !#####!     !#######!                           ",
  "                !####!      !#######!!                          ",
  "                !###!        !#######!                          ",
  "                !##!         !#######!!                         ",
  "                !#!           !#######!                         ",
  "                !!            !#######!!                        ",
  "                !              !#######!                        ",
  "                               !#######!!                       ",
  "                                !#######!                       ",
  "                                !#######!!                      ",
  "                                 !#######!                      ",
  "                                 !#######!                      ",
  "                                  !######!                      ",
  "                                   !!!!!!!                      ",
  "                                                                ",
  "                                                                ",
  "                                                                ",
  "                                                                ",
  "                                                                ",
  "                                                                ",
  "                                                                ",
  "                                                                " };
